# xmcd
#
# Track frame offsets:
#	150
#	16439
#	31346
#	47879
#	61777
#	70383
#	82478
#	96324
#	107992
#	124512
#	142126
#	152589
#	171632
#	181667
#	194861
#	209519
#	222341
#	247548
#	249617
#	265327
#	292516
#	336845
#
# Disc length: 4495 seconds
#
# Revision: 0
# Processed by: cddbd v1.5.1PL2 Copyright (c) Steve Scherf et al.
# Submitted via: dBpowerAMP V4.0
#
DISCID=53118d16
DTITLE=The Worried Men - Dominator
DYEAR=2005
DGENRE=Blues
TTITLE0=I Just Wanna Make Love To You
TTITLE1=Stone Free
TTITLE2=Baby Jump
TTITLE3=Paint It Black
TTITLE4=Station Bar
TTITLE5=Brand New Cadillac
TTITLE6=Lone Rider
TTITLE7=Night Time
TTITLE8=Young Girl
TTITLE9=The Sky Is Crying
TTITLE10=Leaving Here
TTITLE11=Triton
TTITLE12=Fabulous Beast
TTITLE13=White Lady
TTITLE14=Wang Dang Doodle
TTITLE15=Louie Loiue
TTITLE16=Like a Hurricane
TTITLE17=OtHeR?!
TTITLE18=I Can Tell
TTITLE19=Walk Don't Run
TTITLE20=Peter Gun
TTITLE21=Woof!
EXTD=Great album fo classics, especially the last track, great band!
EXTT0=
EXTT1=
EXTT2=
EXTT3=
EXTT4=
EXTT5=
EXTT6=
EXTT7=
EXTT8=
EXTT9=
EXTT10=
EXTT11=
EXTT12=
EXTT13=
EXTT14=
EXTT15=
EXTT16=
EXTT17=
EXTT18=
EXTT19=
EXTT20=
EXTT21=
PLAYORDER=
